<svg width="168" height="72" viewBox="0 0 168 72" fill="none" xmlns="http://www.w3.org/2000/svg">
<path fill-rule="evenodd" clip-rule="evenodd" d="M36.6611 63L36.6676 62.9933L36.6682 62.9939L54.7481 44.3436L61.385 37.4974C62.7 36.141 63.7413 34.6092 64.5091 32.975H55.7613L54.5787 34.5191C54.1962 35.0187 53.5135 35.3034 52.8018 35.2604C52.09 35.2174 51.4644 34.8535 51.1732 34.3133L49.656 31.4981L46.2355 41.5782C46.0021 42.2659 45.2493 42.7433 44.3879 42.7499C43.5264 42.7566 42.763 42.2909 42.5142 41.6069L36.7502 25.7585L31.995 32.2064C31.6428 32.6839 31.0165 32.975 30.3415 32.975H16.3132C15.2428 32.975 14.3751 32.2555 14.3751 31.3679C14.3751 30.4803 15.2428 29.7608 16.3132 29.7608H29.255L35.7022 21.0187C36.1009 20.4782 36.8452 20.1823 37.603 20.2632C38.3608 20.344 38.9906 20.7865 39.2112 21.3931L44.3053 35.3996L47.3751 26.3533C47.5961 25.7019 48.2855 25.2351 49.0994 25.1858C49.9133 25.1365 50.6772 25.5151 51.0102 26.1329L53.2533 30.2949C53.6175 29.958 54.1407 29.7608 54.6962 29.7608H65.6397C66.9742 24.2585 65.5559 18.1918 61.385 13.8894C55.0652 7.3702 44.8187 7.37021 38.4989 13.8894L36.6617 15.7846L35.251 14.3294C28.9312 7.81022 18.6847 7.81023 12.3649 14.3294C6.04505 20.8486 6.04504 31.4182 12.3649 37.9374L36.6611 63Z" fill="white"/>
<path d="M95.3885 25.395H100.204V26.88C100.204 34.17 96.5135 40.695 88.5935 43.035L85.7585 38.355C92.5085 36.375 95.3885 31.605 95.3885 26.88V25.395ZM96.5135 25.395H101.374V26.88C101.374 31.155 104.254 35.565 110.914 37.365L108.214 41.955C100.249 39.84 96.5135 33.72 96.5135 26.88V25.395ZM87.1985 22.065H109.564V26.745H87.1985V22.065ZM95.3885 17.7H101.374V24.045H95.3885V17.7ZM108.484 28.86H116.404V33.72H108.484V28.86ZM114.919 17.835H120.904V46.185H114.919V17.835ZM103.894 43.845H108.979V44.475C108.979 51.36 103.309 57.885 92.9135 59.37L90.7535 54.69C99.4835 53.43 103.894 48.525 103.894 44.475V43.845ZM104.929 43.845H110.014V44.475C110.014 48.795 114.244 53.475 123.199 54.69L120.949 59.37C110.599 57.84 104.929 51.675 104.929 44.475V43.845ZM132.24 29.04H161.04V33.72H132.24V29.04ZM132.24 18.96H138.225V30.84H132.24V18.96ZM127.47 37.365H165.18V42.09H127.47V37.365ZM143.805 40.695H149.79V49.38H143.805V40.695ZM131.88 54.015H161.265V58.785H131.88V54.015ZM131.88 46.23H137.82V56.58H131.88V46.23Z" fill="white"/>
</svg>
