<svg width="75" height="33" viewBox="0 0 75 33" fill="none" xmlns="http://www.w3.org/2000/svg">
    <path fill-rule="evenodd" clip-rule="evenodd" d="M16.4049 28.5L16.4078 28.497L16.4081 28.4973L24.4437 20.2083L27.3934 17.1655C27.9778 16.5627 28.4406 15.8819 28.7819 15.1556H24.8939L24.3683 15.8418C24.1983 16.0639 23.8948 16.1904 23.5785 16.1713C23.2622 16.1522 22.9841 15.9905 22.8547 15.7503L22.1804 14.4992L20.6602 18.9792C20.5565 19.2848 20.2219 19.497 19.839 19.5C19.4561 19.5029 19.1168 19.2959 19.0063 18.992L16.4445 11.9482L14.3311 14.814C14.1745 15.0262 13.8962 15.1556 13.5962 15.1556H7.3614C6.88567 15.1556 6.50001 14.8358 6.50001 14.4413C6.50001 14.0468 6.88567 13.727 7.3614 13.727H13.1133L15.9787 9.84164C16.1559 9.60142 16.4867 9.46992 16.8235 9.50586C17.1603 9.5418 17.4402 9.73846 17.5383 10.0081L19.8023 16.2331L21.1667 12.2126C21.2649 11.9231 21.5713 11.7156 21.933 11.6937C22.2948 11.6718 22.6343 11.8401 22.7823 12.1146L23.7792 13.9644C23.9411 13.8147 24.1736 13.727 24.4205 13.727H29.2844C29.8775 11.2816 29.2471 8.58526 27.3934 6.67306C24.5846 3.77565 20.0306 3.77565 17.2218 6.67306L16.4052 7.51539L15.7782 6.86863C12.9694 3.97122 8.41542 3.97121 5.60661 6.86862C2.7978 9.76603 2.7978 14.4637 5.60661 17.3611L16.4049 28.5Z" fill="#FFFFFF"/>
    <path d="M42.5616 11.62H44.7016V12.28C44.7016 15.52 43.0616 18.42 39.5416 19.46L38.2816 17.38C41.2816 16.5 42.5616 14.38 42.5616 12.28V11.62ZM43.0616 11.62H45.2216V12.28C45.2216 14.18 46.5016 16.14 49.4616 16.94L48.2616 18.98C44.7216 18.04 43.0616 15.32 43.0616 12.28V11.62ZM38.9216 10.14H48.8616V12.22H38.9216V10.14ZM42.5616 8.2H45.2216V11.02H42.5616V8.2ZM48.3816 13.16H51.9016V15.32H48.3816V13.16ZM51.2416 8.26H53.9016V20.86H51.2416V8.26ZM46.3416 19.82H48.6016V20.1C48.6016 23.16 46.0816 26.06 41.4616 26.72L40.5016 24.64C44.3816 24.08 46.3416 21.9 46.3416 20.1V19.82ZM46.8016 19.82H49.0616V20.1C49.0616 22.02 50.9416 24.1 54.9216 24.64L53.9216 26.72C49.3216 26.04 46.8016 23.3 46.8016 20.1V19.82ZM58.94 13.24H71.74V15.32H58.94V13.24ZM58.94 8.76H61.6V14.04H58.94V8.76ZM56.82 16.94H73.58V19.04H56.82V16.94ZM64.08 18.42H66.74V22.28H64.08V18.42ZM58.78 24.34H71.84V26.46H58.78V24.34ZM58.78 20.88H61.42V25.48H58.78V20.88Z" fill="#FFFFFF"/>
</svg>
