<svg width="27" height="27" viewBox="0 0 27 27" fill="none" xmlns="http://www.w3.org/2000/svg">
<path d="M13.5 2.33331C15.0759 2.33331 16.6363 2.6437 18.0922 3.24676C19.5481 3.84981 20.871 4.73373 21.9853 5.84803C23.0996 6.96233 23.9835 8.2852 24.5866 9.74111C25.1896 11.197 25.5 12.7574 25.5 14.3333C25.5 15.9092 25.1896 17.4696 24.5866 18.9255C23.9835 20.3814 23.0996 21.7043 21.9853 22.8186C20.871 23.9329 19.5481 24.8168 18.0922 25.4199C16.6363 26.0229 15.0759 26.3333 13.5 26.3333C10.3174 26.3333 7.26516 25.069 5.01472 22.8186C2.76428 20.5682 1.5 17.5159 1.5 14.3333C1.5 11.1507 2.76428 8.09846 5.01472 5.84803C7.26516 3.59759 10.3174 2.33331 13.5 2.33331ZM13.5 7.66664C13.1734 7.66669 12.8582 7.78658 12.6142 8.0036C12.3701 8.22061 12.2142 8.51964 12.176 8.84398L12.1667 8.99998V14.3146C12.1625 14.6112 12.2572 14.9007 12.436 15.1373L12.556 15.276L15.364 18.0826C15.6034 18.3243 15.9261 18.4654 16.2661 18.4769C16.606 18.4884 16.9376 18.3696 17.1928 18.1447C17.448 17.9198 17.6076 17.6059 17.6389 17.2671C17.6703 16.9284 17.571 16.5905 17.3613 16.3226L17.2493 16.1973L14.8333 13.7813V8.99998C14.8333 8.64635 14.6929 8.30722 14.4428 8.05717C14.1928 7.80712 13.8536 7.66664 13.5 7.66664ZM21.5 0.474643C23.1648 1.43629 24.6426 2.69011 25.8627 4.17598C26.0756 4.45016 26.1731 4.79656 26.1346 5.14155C26.0961 5.48654 25.9246 5.80291 25.6565 6.02342C25.3884 6.24394 25.0449 6.3512 24.699 6.32243C24.353 6.29365 24.032 6.13109 23.804 5.86931C22.7866 4.63 21.554 3.58437 20.1653 2.78264C20.0138 2.69492 19.881 2.57821 19.7746 2.43917C19.6681 2.30013 19.5901 2.14149 19.545 1.9723C19.4999 1.80311 19.4885 1.62669 19.5115 1.45311C19.5346 1.27953 19.5916 1.11219 19.6793 0.960643C19.7671 0.809098 19.8838 0.676315 20.0228 0.569875C20.1618 0.463435 20.3205 0.385424 20.4897 0.340295C20.6589 0.295165 20.8353 0.283802 21.0089 0.306854C21.1824 0.329905 21.3485 0.38692 21.5 0.474643ZM7.32133 0.96131C7.49814 1.26755 7.54605 1.63148 7.45453 1.97304C7.36302 2.31461 7.13956 2.60583 6.83333 2.78264C5.4446 3.58477 4.21197 4.63086 3.19467 5.87064C3.08535 6.01144 2.94891 6.12888 2.79341 6.21604C2.63792 6.30319 2.46653 6.35828 2.28938 6.37805C2.11223 6.39782 1.93291 6.38186 1.76203 6.33113C1.59115 6.2804 1.43217 6.19591 1.29451 6.08268C1.15684 5.96944 1.04328 5.82975 0.960538 5.67187C0.877793 5.51399 0.827546 5.34112 0.812768 5.16348C0.79799 4.98584 0.818981 4.80704 0.8745 4.63766C0.930019 4.46827 1.01894 4.31174 1.136 4.17731C2.35552 2.69109 3.83291 1.43682 5.49733 0.474643C5.64894 0.386836 5.81637 0.32977 5.99005 0.306707C6.16373 0.283645 6.34025 0.295037 6.50953 0.340235C6.6788 0.385432 6.83751 0.463547 6.97657 0.570115C7.11564 0.676683 7.23234 0.809615 7.32 0.96131H7.32133Z" fill="#CCCCCC"/>
</svg>
