<svg width="24" height="25" viewBox="0 0 24 25" fill="none" xmlns="http://www.w3.org/2000/svg">
<path fill-rule="evenodd" clip-rule="evenodd" d="M9.305 12.9033L11.645 10.7867C12.1832 10.3008 12.8206 9.93782 13.513 9.72284C14.2054 9.50786 14.9363 9.44604 15.655 9.54167L18.7517 9.95167L23.0483 7.63C23.1118 7.59564 23.1831 7.57836 23.2553 7.57986C23.3275 7.58136 23.398 7.60159 23.46 7.63855C23.522 7.67552 23.5734 7.72796 23.609 7.79074C23.6447 7.85352 23.6634 7.92448 23.6633 7.99667V15.8933C23.6633 16.1583 23.6001 16.4195 23.4789 16.6551C23.3577 16.8908 23.1821 17.0941 22.9667 17.2483L20.0733 19.3167L16.94 16.69C17.5512 16.4703 18.1025 16.1107 18.55 15.64C18.6451 15.5415 18.7199 15.4253 18.77 15.2979C18.8202 15.1705 18.8448 15.0345 18.8424 14.8976C18.84 14.7607 18.8107 14.6256 18.7561 14.5001C18.7015 14.3745 18.6227 14.2609 18.5242 14.1658C18.4257 14.0707 18.3094 13.996 18.182 13.9458C18.0546 13.8956 17.9186 13.871 17.7817 13.8734C17.6448 13.8758 17.5098 13.9052 17.3842 13.9598C17.2587 14.0144 17.1451 14.0932 17.05 14.1917C16.7417 14.5133 16.3833 14.72 15.9633 14.8017C15.5983 14.8733 15.1333 14.8617 14.5483 14.6817L13.805 14.0567L11.73 15.7383C11.3515 16.0381 10.8715 16.1795 10.3909 16.1329C9.91032 16.0863 9.46649 15.8553 9.15263 15.4883C8.83877 15.1214 8.6793 14.6471 8.70771 14.1651C8.73612 13.6831 8.95021 13.2308 9.305 12.9033ZM7.90834 11.3567L9.58834 9.83834C8.86608 9.64127 8.10932 9.60543 7.37167 9.73334L4.31334 10.2633L0.956669 8.45667C0.891859 8.42173 0.819084 8.40423 0.745475 8.40588C0.671866 8.40753 0.599949 8.42828 0.536769 8.46609C0.47359 8.50389 0.421316 8.55746 0.38507 8.62155C0.348823 8.68564 0.329848 8.75804 0.330003 8.83167V15.8917C0.330003 16.455 0.608336 16.9817 1.07334 17.2983L10.165 23.4967C10.7397 23.8883 11.4206 24.0946 12.116 24.0877C12.8115 24.0809 13.4881 23.8612 14.055 23.4583L18.2317 20.4933L13.7817 16.76L13.04 17.3567C12.2398 17.9998 11.2207 18.3061 10.1985 18.2107C9.17637 18.1153 8.2315 17.6257 7.56412 16.8457C6.89673 16.0656 6.55926 15.0564 6.6232 14.0318C6.68715 13.0072 7.14914 12.0477 7.90834 11.3567Z" fill="#CCCCCC"/>
<path d="M11.6667 8.39583L11.0625 7.84583C8.91667 5.9 7.5 4.6125 7.5 3.04167C7.5 1.75417 8.50833 0.75 9.79167 0.75C10.5167 0.75 11.2125 1.0875 11.6667 1.61667C12.1208 1.0875 12.8167 0.75 13.5417 0.75C14.825 0.75 15.8333 1.75417 15.8333 3.04167C15.8333 4.6125 14.4167 5.9 12.2708 7.84583L11.6667 8.39583Z" fill="#CCCCCC"/>
</svg>
