<svg width="26" height="25" viewBox="0 0 26 25" fill="none" xmlns="http://www.w3.org/2000/svg">
<path fill-rule="evenodd" clip-rule="evenodd" d="M12.9049 24.5L12.9078 24.497L12.9081 24.4973L20.9437 16.2083L23.8934 13.1655C24.4778 12.5627 24.9406 11.8819 25.2819 11.1556H21.3939L20.8683 11.8418C20.6983 12.0639 20.3948 12.1904 20.0785 12.1713C19.7622 12.1522 19.4841 11.9905 19.3547 11.7503L18.6804 10.4992L17.1602 14.9792C17.0565 15.2848 16.7219 15.497 16.339 15.5C15.9561 15.5029 15.6168 15.2959 15.5063 14.992L12.9445 7.94824L10.8311 10.814C10.6745 11.0262 10.3962 11.1556 10.0962 11.1556H3.8614C3.38567 11.1556 3.00001 10.8358 3.00001 10.4413C3.00001 10.0468 3.38567 9.72701 3.8614 9.72701H9.61328L12.4787 5.84164C12.6559 5.60142 12.9867 5.46992 13.3235 5.50586C13.6603 5.5418 13.9402 5.73846 14.0383 6.00806L16.3023 12.2331L17.6667 8.2126C17.7649 7.92309 18.0713 7.71563 18.433 7.69369C18.7948 7.67176 19.1343 7.84006 19.2823 8.11464L20.2792 9.96441C20.4411 9.81469 20.6736 9.72701 20.9205 9.72701H25.7844C26.3775 7.28157 25.7471 4.58526 23.8934 2.67306C21.0846 -0.224352 16.5306 -0.224354 13.7218 2.67306L12.9052 3.51539L12.2782 2.86863C9.46941 -0.0287847 4.91542 -0.0287864 2.10661 2.86862C-0.702205 5.76603 -0.702202 10.4637 2.10661 13.3611L12.9049 24.5Z" fill="#CCCCCC"/>
</svg>
