<svg width="24" height="27" viewBox="0 0 24 27" fill="none" xmlns="http://www.w3.org/2000/svg">
<path d="M12 14.8334C15.1947 14.8334 18.1 15.7587 20.2373 17.0627C21.304 17.7134 22.216 18.4814 22.8747 19.316C23.5227 20.136 24 21.1174 24 22.1667C24 23.2934 23.452 24.1814 22.6627 24.8147C21.916 25.4147 20.9307 25.812 19.884 26.0894C17.78 26.6454 14.972 26.8334 12 26.8334C9.028 26.8334 6.22 26.6467 4.116 26.0894C3.06933 25.812 2.084 25.4147 1.33733 24.8147C0.546666 24.18 0 23.2934 0 22.1667C0 21.1174 0.477333 20.136 1.12533 19.3147C1.784 18.4814 2.69467 17.7147 3.76267 17.0614C5.9 15.76 8.80667 14.8334 12 14.8334ZM12 0.166687C13.7681 0.166687 15.4638 0.869066 16.714 2.11931C17.9643 3.36955 18.6667 5.06524 18.6667 6.83335C18.6667 8.60146 17.9643 10.2972 16.714 11.5474C15.4638 12.7976 13.7681 13.5 12 13.5C10.2319 13.5 8.5362 12.7976 7.28595 11.5474C6.03571 10.2972 5.33333 8.60146 5.33333 6.83335C5.33333 5.06524 6.03571 3.36955 7.28595 2.11931C8.5362 0.869066 10.2319 0.166687 12 0.166687Z" fill="#CCCCCC"/>
</svg>
